<svg xmlns="http://www.w3.org/2000/svg" width="1200" height="630" viewBox="0 0 1200 630">
  <defs>
    <linearGradient id="bg" x1="0%" y1="0%" x2="100%" y2="100%">
      <stop offset="0%" style="stop-color:#0f172a"/>
      <stop offset="50%" style="stop-color:#1e1b4b"/>
      <stop offset="100%" style="stop-color:#0f172a"/>
    </linearGradient>
    <linearGradient id="textGrad" x1="0%" y1="0%" x2="100%" y2="0%">
      <stop offset="0%" style="stop-color:#60a5fa"/>
      <stop offset="50%" style="stop-color:#a78bfa"/>
      <stop offset="100%" style="stop-color:#f472b6"/>
    </linearGradient>
  </defs>
  <rect width="1200" height="630" fill="url(#bg)"/>
  <circle cx="1050" cy="80" r="150" fill="rgba(168,85,247,0.08)"/>
  <circle cx="150" cy="550" r="150" fill="rgba(59,130,246,0.08)"/>
  <text x="600" y="230" text-anchor="middle" font-family="system-ui,sans-serif" font-size="64" font-weight="800" fill="url(#textGrad)">Banu Paksoy</text>
  <text x="600" y="290" text-anchor="middle" font-family="system-ui,sans-serif" font-size="26" font-weight="300" fill="#cbd5e1">Full-Stack Developer &amp; Cloud Architect</text>
  <g text-anchor="middle">
    <rect x="235" y="340" width="90" height="36" rx="8" fill="rgba(255,255,255,0.1)" stroke="rgba(255,255,255,0.15)"/>
    <text x="280" y="364" font-family="system-ui,sans-serif" font-size="14" fill="#e2e8f0">Next.js</text>
    <rect x="345" y="340" width="80" height="36" rx="8" fill="rgba(255,255,255,0.1)" stroke="rgba(255,255,255,0.15)"/>
    <text x="385" y="364" font-family="system-ui,sans-serif" font-size="14" fill="#e2e8f0">React</text>
    <rect x="445" y="340" width="85" height="36" rx="8" fill="rgba(255,255,255,0.1)" stroke="rgba(255,255,255,0.15)"/>
    <text x="488" y="364" font-family="system-ui,sans-serif" font-size="14" fill="#e2e8f0">NestJS</text>
    <rect x="550" y="340" width="70" height="36" rx="8" fill="rgba(255,255,255,0.1)" stroke="rgba(255,255,255,0.15)"/>
    <text x="585" y="364" font-family="system-ui,sans-serif" font-size="14" fill="#e2e8f0">GCP</text>
    <rect x="640" y="340" width="110" height="36" rx="8" fill="rgba(255,255,255,0.1)" stroke="rgba(255,255,255,0.15)"/>
    <text x="695" y="364" font-family="system-ui,sans-serif" font-size="14" fill="#e2e8f0">Gemini AI</text>
    <rect x="770" y="340" width="95" height="36" rx="8" fill="rgba(255,255,255,0.1)" stroke="rgba(255,255,255,0.15)"/>
    <text x="818" y="364" font-family="system-ui,sans-serif" font-size="14" fill="#e2e8f0">Firebase</text>
  </g>
</svg>
